# xmcd
#
# Track frame offsets:
#	180
#	14741
#	32885
#	49426
#	60019
#	82683
#	105087
#	123473
#	137935
#	150688
#
# Disc length: 2317 seconds
#
# Revision: 0
# Processed by: cddbd v1.5.1PL0 Copyright (c) Steve Scherf et al.
# Submitted via: dBpowerAMP V4.0
#
DISCID=78090b0a
DTITLE=Thom Roberts and Carlos del Junco - Big Road Blues
DYEAR=1900
DGENRE=Blues
TTITLE0=Big Road Blues
TTITLE1=M and O Blues
TTITLE2=Come On In My Kitchen
TTITLE3=Stone Pony Blues
TTITLE4=Pony Blues
TTITLE5=Death Don't Have No Mercy
TTITLE6=Green River Blues
TTITLE7=Future Blues
TTITLE8=12 Gates (Oh What A Beautiful City)
TTITLE9=Delia
EXTD=
EXTT0=
EXTT1=
EXTT2=
EXTT3=
EXTT4=
EXTT5=
EXTT6=
EXTT7=
EXTT8=
EXTT9=
PLAYORDER=
